<svg width="159" height="150" viewBox="0 0 159 150" fill="none" xmlns="http://www.w3.org/2000/svg">
<path d="M36 54L31.7574 49.7574C30.6321 50.8826 30 52.4087 30 54H36ZM66 150C69.3137 150 72 147.314 72 144C72 140.686 69.3137 138 66 138V150ZM6 138C2.68629 138 0 140.686 0 144C0 147.314 2.68629 150 6 150V138ZM81.5 8.5L85.7426 4.25736L81.5 0.0147186L77.2574 4.25736L81.5 8.5ZM122.757 58.2426C125.101 60.5858 128.899 60.5858 131.243 58.2426C133.586 55.8995 133.586 52.1005 131.243 49.7574L122.757 58.2426ZM30 54V144H42V54H30ZM36 150H66V138H36V150ZM6 150H36V138H6V150ZM40.2426 58.2426L85.7426 12.7426L77.2574 4.25736L31.7574 49.7574L40.2426 58.2426ZM77.2574 12.7426L122.757 58.2426L131.243 49.7574L85.7426 4.25736L77.2574 12.7426Z" fill="white"/>
<path d="M78.7509 93.6106C77.9836 91.539 75.6822 90.4817 73.6106 91.2491C71.539 92.0164 70.4817 94.3178 71.2491 96.3894L78.7509 93.6106ZM118.794 96.2674C119.494 94.1721 118.363 91.9061 116.267 91.2061C114.172 90.5061 111.906 91.6372 111.206 93.7326L118.794 96.2674ZM75 95C71.2491 96.3894 71.2492 96.3898 71.2494 96.3904C71.2495 96.3907 71.2498 96.3914 71.2501 96.3922C71.2506 96.3936 71.2514 96.3957 71.2524 96.3983C71.2543 96.4035 71.257 96.4109 71.2606 96.4206C71.2678 96.4398 71.2782 96.4678 71.2918 96.5042C71.319 96.5772 71.359 96.684 71.4111 96.8225C71.5152 97.0995 71.6679 97.5034 71.8641 98.0163C72.2563 99.0419 72.8229 100.505 73.5231 102.262C74.9218 105.772 76.8626 110.479 79.0204 115.235C81.1665 119.964 83.5777 124.855 85.9228 128.678C87.0888 130.578 88.3168 132.346 89.5654 133.722C90.6552 134.923 92.3907 136.554 94.6628 136.925L95.9526 129.03C96.5641 129.13 96.4195 129.371 95.4906 128.347C94.7206 127.498 93.7911 126.205 92.742 124.494C90.6566 121.095 88.4061 116.558 86.3055 111.929C84.2167 107.326 82.3261 102.742 80.9549 99.3008C80.2702 97.5826 79.7172 96.1547 79.3362 95.1584C79.1458 94.6604 78.9984 94.2706 78.8991 94.0067C78.8495 93.8747 78.8119 93.7743 78.787 93.7075C78.7746 93.6741 78.7653 93.6492 78.7592 93.6329C78.7562 93.6248 78.754 93.6189 78.7526 93.6151C78.7519 93.6133 78.7514 93.612 78.7512 93.6112C78.751 93.6108 78.751 93.6107 78.7509 93.6105C78.7509 93.6105 78.7509 93.6106 75 95ZM94.6628 136.925C97.5034 137.39 99.6971 135.645 100.848 134.526C102.191 133.222 103.449 131.459 104.594 129.596C106.911 125.828 109.258 120.826 111.326 115.96C113.41 111.058 115.275 106.138 116.616 102.455C117.287 100.611 117.83 99.0696 118.205 97.9874C118.393 97.4461 118.539 97.0193 118.639 96.7262C118.689 96.5797 118.727 96.4666 118.753 96.3893C118.766 96.3507 118.776 96.321 118.783 96.3006C118.786 96.2904 118.789 96.2825 118.791 96.277C118.792 96.2742 118.792 96.272 118.793 96.2704C118.793 96.2696 118.793 96.2689 118.794 96.2685C118.794 96.2679 118.794 96.2674 115 95C111.206 93.7326 111.206 93.7324 111.206 93.7324C111.206 93.7326 111.206 93.7327 111.206 93.7331C111.206 93.7339 111.205 93.7353 111.205 93.7373C111.203 93.7412 111.201 93.7474 111.198 93.756C111.193 93.7731 111.184 93.7995 111.172 93.8347C111.148 93.9052 111.112 94.0113 111.065 94.1506C110.97 94.4293 110.829 94.8406 110.647 95.3654C110.283 96.4152 109.754 97.9174 109.099 99.7181C107.785 103.325 105.973 108.104 103.963 112.831C101.939 117.595 99.7774 122.156 97.7792 125.407C96.767 127.053 95.9159 128.165 95.2736 128.789C94.4397 129.599 94.7726 128.837 95.9526 129.03L94.6628 136.925Z" fill="white"/>
<path d="M158.794 96.2674C159.494 94.1721 158.363 91.9061 156.267 91.2061C154.172 90.5061 151.906 91.6372 151.206 93.7326L158.794 96.2674ZM115 95C111.249 96.3894 111.249 96.3898 111.249 96.3904C111.25 96.3907 111.25 96.3914 111.25 96.3922C111.251 96.3936 111.251 96.3957 111.252 96.3983C111.254 96.4035 111.257 96.4109 111.261 96.4206C111.268 96.4398 111.278 96.4678 111.292 96.5042C111.319 96.5772 111.359 96.684 111.411 96.8225C111.515 97.0995 111.668 97.5034 111.864 98.0163C112.256 99.0419 112.823 100.505 113.523 102.262C114.922 105.772 116.863 110.479 119.02 115.235C121.167 119.964 123.578 124.855 125.923 128.678C127.089 130.578 128.317 132.346 129.565 133.722C130.655 134.923 132.391 136.554 134.663 136.925L135.953 129.03C136.564 129.13 136.42 129.371 135.491 128.347C134.721 127.498 133.791 126.205 132.742 124.494C130.657 121.095 128.406 116.558 126.306 111.929C124.217 107.326 122.326 102.742 120.955 99.3008C120.27 97.5826 119.717 96.1547 119.336 95.1584C119.146 94.6604 118.998 94.2706 118.899 94.0067C118.85 93.8747 118.812 93.7743 118.787 93.7075C118.775 93.6741 118.765 93.6492 118.759 93.6329C118.756 93.6248 118.754 93.6189 118.753 93.6151C118.752 93.6133 118.751 93.612 118.751 93.6112C118.751 93.6108 118.751 93.6107 118.751 93.6105C118.751 93.6105 118.751 93.6106 115 95ZM134.663 136.925C137.503 137.39 139.697 135.645 140.848 134.526C142.191 133.222 143.449 131.459 144.594 129.596C146.911 125.828 149.258 120.826 151.326 115.96C153.41 111.058 155.275 106.138 156.616 102.455C157.287 100.611 157.83 99.0696 158.205 97.9874C158.393 97.4461 158.539 97.0193 158.639 96.7262C158.689 96.5797 158.727 96.4666 158.753 96.3893C158.766 96.3507 158.776 96.321 158.783 96.3006C158.786 96.2904 158.789 96.2825 158.791 96.277C158.792 96.2742 158.792 96.272 158.793 96.2704C158.793 96.2696 158.793 96.2689 158.794 96.2685C158.794 96.2679 158.794 96.2674 155 95C151.206 93.7326 151.206 93.7324 151.206 93.7324C151.206 93.7326 151.206 93.7327 151.206 93.7331C151.206 93.7339 151.205 93.7353 151.205 93.7373C151.203 93.7412 151.201 93.7474 151.198 93.756C151.193 93.7731 151.184 93.7995 151.172 93.8347C151.148 93.9052 151.112 94.0113 151.065 94.1506C150.97 94.4293 150.829 94.8406 150.647 95.3654C150.283 96.4152 149.754 97.9174 149.099 99.7181C147.785 103.325 145.973 108.104 143.963 112.831C141.939 117.595 139.777 122.156 137.779 125.407C136.767 127.053 135.916 128.165 135.274 128.789C134.44 129.599 134.773 128.837 135.953 129.03L134.663 136.925Z" fill="white"/>
</svg>
